<svg width="136" height="36" viewBox="0 0 136 36" fill="none" xmlns="http://www.w3.org/2000/svg">
<path d="M14.1348 21.1973C14.1348 20.2949 13.8125 19.5918 13.168 19.0879C12.5352 18.584 11.416 18.0625 9.81055 17.5234C8.20508 16.9844 6.89258 16.4629 5.87305 15.959C2.55664 14.3301 0.898438 12.0918 0.898438 9.24414C0.898438 7.82617 1.30859 6.57812 2.12891 5.5C2.96094 4.41016 4.13281 3.56641 5.64453 2.96875C7.15625 2.35937 8.85547 2.05469 10.7422 2.05469C12.582 2.05469 14.2285 2.38281 15.6816 3.03906C17.1465 3.69531 18.2832 4.63281 19.0918 5.85156C19.9004 7.05859 20.3047 8.44141 20.3047 10H14.1523C14.1523 8.95703 13.8301 8.14844 13.1855 7.57422C12.5527 7 11.6914 6.71289 10.6016 6.71289C9.5 6.71289 8.62695 6.95898 7.98242 7.45117C7.34961 7.93164 7.0332 8.54687 7.0332 9.29688C7.0332 9.95312 7.38477 10.5508 8.08789 11.0898C8.79102 11.6172 10.0273 12.168 11.7969 12.7422C13.5664 13.3047 15.0195 13.9141 16.1562 14.5703C18.9219 16.1641 20.3047 18.3613 20.3047 21.1621C20.3047 23.4004 19.4609 25.1582 17.7734 26.4355C16.0859 27.7129 13.7715 28.3516 10.8301 28.3516C8.75586 28.3516 6.875 27.9824 5.1875 27.2441C3.51172 26.4941 2.24609 25.4746 1.39062 24.1855C0.546875 22.8848 0.125 21.3906 0.125 19.7031H6.3125C6.3125 21.0742 6.66406 22.0879 7.36719 22.7441C8.08203 23.3887 9.23633 23.7109 10.8301 23.7109C11.8496 23.7109 12.6523 23.4941 13.2383 23.0605C13.8359 22.6152 14.1348 21.9941 14.1348 21.1973ZM30.0957 4.25195V8.98047H33.2246V13.0938H30.0957V21.7949C30.0957 22.5098 30.2246 23.0078 30.4824 23.2891C30.7402 23.5703 31.25 23.7109 32.0117 23.7109C32.5977 23.7109 33.0898 23.6758 33.4883 23.6055V27.8418C32.4219 28.1816 31.3086 28.3516 30.1484 28.3516C28.1094 28.3516 26.6035 27.8711 25.6309 26.9102C24.6582 25.9492 24.1719 24.4902 24.1719 22.5332V13.0938H21.7461V8.98047H24.1719V4.25195H30.0957ZM34.2969 18.3145C34.2969 16.416 34.666 14.7285 35.4043 13.252C36.1426 11.7637 37.2031 10.6211 38.5859 9.82422C39.9688 9.02734 41.5918 8.62891 43.4551 8.62891C46.3027 8.62891 48.5469 9.51367 50.1875 11.2832C51.8281 13.041 52.6484 15.4375 52.6484 18.4727V18.6836C52.6484 21.6484 51.8223 24.0039 50.1699 25.75C48.5293 27.4844 46.3027 28.3516 43.4902 28.3516C40.7832 28.3516 38.6094 27.543 36.9688 25.9258C35.3281 24.2969 34.4434 22.0938 34.3145 19.3164L34.2969 18.3145ZM40.2207 18.6836C40.2207 20.4414 40.4961 21.7305 41.0469 22.5508C41.5977 23.3711 42.4121 23.7812 43.4902 23.7812C45.5996 23.7812 46.6777 22.1582 46.7246 18.9121V18.3145C46.7246 14.9043 45.6348 13.1992 43.4551 13.1992C41.4746 13.1992 40.4023 14.6699 40.2383 17.6113L40.2207 18.6836ZM63.3008 23.7812C64.1328 23.7812 64.7773 23.5586 65.2344 23.1133C65.6914 22.6562 65.9141 22.0234 65.9023 21.2148H71.457C71.457 23.3008 70.707 25.0117 69.207 26.3477C67.7188 27.6836 65.7969 28.3516 63.4414 28.3516C60.6758 28.3516 58.4961 27.4844 56.9023 25.75C55.3086 24.0156 54.5117 21.6133 54.5117 18.543V18.2969C54.5117 16.375 54.8633 14.6816 55.5664 13.2168C56.2812 11.7402 57.3066 10.6094 58.6426 9.82422C59.9785 9.02734 61.5605 8.62891 63.3887 8.62891C65.8613 8.62891 67.8242 9.31445 69.2773 10.6855C70.7305 12.0566 71.457 13.9141 71.457 16.2578H65.9023C65.9023 15.2734 65.6621 14.5176 65.1816 13.9902C64.7012 13.4629 64.0566 13.1992 63.248 13.1992C61.7129 13.1992 60.8164 14.1777 60.5586 16.1348C60.4766 16.7559 60.4355 17.6113 60.4355 18.7012C60.4355 20.6113 60.6641 21.9355 61.1211 22.6738C61.5781 23.4121 62.3047 23.7812 63.3008 23.7812ZM81.5996 20.916L79.9297 22.5859V28H74.0059V0.982422H79.9297V15.3262L80.5273 14.5352L84.9922 8.98047H92.0938L85.4316 16.8027L92.5332 28H85.748L81.5996 20.916ZM113.996 2.40625V19.1582C113.996 21.0566 113.592 22.7031 112.783 24.0977C111.975 25.4805 110.814 26.5352 109.303 27.2617C107.791 27.9883 106.004 28.3516 103.941 28.3516C100.824 28.3516 98.3691 27.543 96.5762 25.9258C94.7832 24.3086 93.8691 22.0938 93.834 19.2812V2.40625H100.039V19.4043C100.109 22.2051 101.41 23.6055 103.941 23.6055C105.219 23.6055 106.186 23.2539 106.842 22.5508C107.498 21.8477 107.826 20.7051 107.826 19.123V2.40625H113.996ZM135.248 18.6309C135.248 21.584 134.58 23.9453 133.244 25.7148C131.92 27.4727 130.127 28.3516 127.865 28.3516C126.119 28.3516 124.684 27.7129 123.559 26.4355V35.3125H117.635V8.98047H123.172L123.348 10.7383C124.484 9.33203 125.979 8.62891 127.83 8.62891C130.174 8.62891 131.996 9.49609 133.297 11.2305C134.598 12.9531 135.248 15.3262 135.248 18.3496V18.6309ZM129.324 18.2617C129.324 14.8867 128.34 13.1992 126.371 13.1992C124.965 13.1992 124.027 13.7031 123.559 14.7109V22.1992C124.074 23.2539 125.023 23.7812 126.406 23.7812C128.293 23.7812 129.266 22.1523 129.324 18.8945V18.2617Z" fill="white"/>
</svg>
