<svg width="70" height="70" viewBox="0 0 70 70" fill="none" xmlns="http://www.w3.org/2000/svg">
<g clip-path="url(#clip0_34_223)">
<path d="M16.5446 36.0036L0.756002 20.215C-0.263557 19.1955 -0.263557 17.5642 0.756002 16.5446L16.5446 0.756002C17.5642 -0.263557 19.1955 -0.263557 20.215 0.756002L36.0036 16.5446C37.0232 17.5642 37.0232 19.1955 36.0036 20.215L20.215 36.0036C19.1955 37.0232 17.5642 37.0232 16.5446 36.0036Z" fill="white"/>
<path d="M67.4075 32.1598H45.0937C43.6663 32.1598 42.5011 30.9946 42.5011 29.5672V7.22431C42.5011 5.79692 43.6663 4.63171 45.0937 4.63171H67.4075C68.8349 4.63171 70.0001 5.79692 70.0001 7.22431V29.5381C70.0001 30.9946 68.8349 32.1598 67.4075 32.1598Z" fill="white"/>
<path d="M29.5381 70.0001H7.22431C5.79692 70.0001 4.63171 68.8349 4.63171 67.4075V45.0937C4.63171 43.6663 5.79692 42.5011 7.22431 42.5011H29.5381C30.9655 42.5011 32.1307 43.6663 32.1307 45.0937V67.4075C32.1598 68.8349 30.9946 70.0001 29.5381 70.0001Z" fill="white"/>
<path d="M67.4075 70.0001H45.0937C43.6663 70.0001 42.5011 68.8349 42.5011 67.4075V45.0937C42.5011 43.6663 43.6663 42.5011 45.0937 42.5011H67.4075C68.8349 42.5011 70.0001 43.6663 70.0001 45.0937V67.4075C70.0001 68.8349 68.8349 70.0001 67.4075 70.0001Z" fill="white"/>
</g>
<defs>
<clipPath id="clip0_34_223">
<rect width="70" height="70" fill="white"/>
</clipPath>
</defs>
</svg>
