<svg width="50" height="50" viewBox="0 0 50 50" fill="none" xmlns="http://www.w3.org/2000/svg">
<path d="M49.6 31.7853V34.2131C49.4719 35.006 49.3989 35.8144 49.2067 36.5917C47.6576 42.8737 43.8485 47.1281 37.6985 48.8991C31.6202 50.6507 26.2223 49.074 21.6611 44.6433C21.5599 44.534 21.4369 44.4477 21.3001 44.3903C21.1633 44.3328 21.016 44.3056 20.868 44.3104C17.2485 44.322 13.6289 44.335 10.0094 44.3104C6.97027 44.2897 4.83699 41.3177 5.84021 38.4495C6.11184 37.6721 6.67174 36.9946 7.12146 36.2315C6.6336 35.8146 6.24333 35.2935 5.97878 34.7056C5.71424 34.1177 5.58201 33.4779 5.59165 32.8321C5.59165 31.4225 6.19768 30.2825 7.24446 29.3497C6.17462 28.3988 5.58909 27.251 5.59165 25.8389C5.59421 24.4267 6.19512 23.2893 7.26496 22.3409C7.13684 22.2321 7.03177 22.157 6.94209 22.0676C6.11499 21.2808 5.63065 20.1941 5.59549 19.0464C5.56976 18.4457 5.6644 17.8458 5.87372 17.283C6.08304 16.7201 6.40272 16.2059 6.81356 15.7711C7.2244 15.3363 7.71792 14.99 8.26447 14.7529C8.81102 14.5159 9.39932 14.393 9.99402 14.3916C10.8038 14.38 11.6122 14.3916 12.4912 14.3916C11.488 12.6828 11.5008 11.0233 12.4912 9.3391H11.8903C9.53662 9.3391 7.18296 9.35594 4.82802 9.33132C3.18418 9.31578 1.88884 8.58769 1.04962 7.15485C0.747243 6.63923 0.611431 6.02386 0.400024 5.45253V4.28656C0.426819 4.22985 0.44993 4.17142 0.469212 4.11167C1.11752 1.61002 2.66015 0.400002 5.21112 0.400002H27.6484C27.952 0.400002 28.257 0.400002 28.5606 0.400002C31.1949 0.499757 33.1911 2.99104 32.7003 5.61059C32.5876 6.213 32.3275 6.78692 32.1302 7.38934H32.6427C35.0296 7.38934 37.4153 7.37379 39.8023 7.39711C40.687 7.41387 41.5462 7.69932 42.2683 8.21635C42.9904 8.73338 43.542 9.45808 43.8514 10.2963C44.1608 11.1345 44.2136 12.0474 44.0031 12.9164C43.7926 13.7853 43.3285 14.5702 42.671 15.1689C41.8628 15.9247 40.8006 16.3415 39.6998 16.3349C38.8939 16.3427 38.0893 16.3349 37.2654 16.3349C37.4294 16.9075 37.7421 17.155 38.2507 17.3351C43.9331 19.3353 47.5833 23.275 49.126 29.167C49.3502 30.0221 49.445 30.9108 49.6 31.7853ZM18.85 33.0096C18.8282 41.0418 25.2909 47.6062 33.2385 47.6217C41.163 47.6386 47.6397 41.1299 47.6769 33.1119C47.714 25.0939 41.2629 18.5062 33.3128 18.4725C25.3626 18.4388 18.8731 24.9721 18.85 33.0096V33.0096ZM16.5656 7.39581C20.4725 7.39581 24.379 7.39581 28.2851 7.39581C29.797 7.39581 30.9245 6.2156 30.8579 4.74C30.7951 3.36156 29.6817 2.34328 28.2185 2.34328C22.1018 2.34328 15.9851 2.34328 9.86846 2.34328C8.18746 2.34328 6.50646 2.33421 4.82546 2.34328C4.28452 2.34063 3.75744 2.51622 3.32398 2.84347C2.89053 3.17072 2.57429 3.63183 2.42312 4.15701C1.9529 5.8088 3.14959 7.39581 4.89209 7.39581C8.78324 7.40229 12.6744 7.39581 16.5656 7.39581ZM27.9469 14.3916C31.8376 14.3916 35.7284 14.3916 39.6191 14.3916C41.1348 14.3916 42.2623 13.2257 42.2021 11.7462C42.1406 10.3664 41.0272 9.3391 39.5678 9.3391C31.8205 9.3391 24.0707 9.3391 16.3183 9.3391C16.2222 9.3391 16.1261 9.3391 16.0313 9.3391C15.5081 9.36794 15.007 9.56195 14.5986 9.89382C14.1902 10.2257 13.895 10.6787 13.7545 11.1891C13.3137 12.837 14.5002 14.3916 16.2209 14.3916C20.1313 14.3994 24.0352 14.3916 27.9469 14.3916ZM34.2878 16.607L34.2942 16.4191C33.9547 16.3919 33.6151 16.3401 33.2769 16.3388C27.5881 16.3362 21.9015 16.3349 16.2171 16.3349C14.1517 16.3349 12.085 16.3271 10.0196 16.3349C9.47795 16.331 8.94979 16.506 8.51547 16.8334C8.08116 17.1608 7.76444 17.6226 7.61346 18.1486C7.14068 19.7965 8.33481 21.3874 10.0773 21.3874C13.7929 21.3978 17.5086 21.3874 21.2242 21.3991C21.3804 21.4038 21.5358 21.3754 21.6805 21.3159C21.8253 21.2563 21.9561 21.1668 22.0647 21.0532C24.813 18.4622 28.0507 16.9425 31.8022 16.6199C32.6247 16.5461 33.4563 16.607 34.2827 16.607H34.2878ZM19.875 23.3307H19.4689C16.2657 23.3307 13.0703 23.3307 9.87231 23.3437C9.55279 23.3586 9.2395 23.4383 8.95109 23.5782C8.44533 23.8128 8.03268 24.2132 7.77993 24.7144C7.52718 25.2157 7.44911 25.7885 7.55837 26.3402C7.81462 27.5321 8.77684 28.369 9.97352 28.3768C12.4207 28.3923 14.8679 28.3768 17.3151 28.3768C17.4061 28.3768 17.497 28.3599 17.588 28.3509L17.4714 28.2654L19.875 23.3307ZM19.6098 42.3749L17.3176 37.3223C14.9025 37.3223 12.3733 37.2938 9.8454 37.3379C8.83449 37.3547 8.10034 37.9364 7.70571 38.8847C7.00999 40.5611 8.21565 42.3645 10.0542 42.3749C13.16 42.3878 16.2657 42.3749 19.3702 42.3749H19.6098ZM17.0947 30.3473C17.0127 30.3395 16.9512 30.3278 16.8884 30.3278C14.5822 30.3278 12.2759 30.3214 9.97737 30.3278C9.70623 30.3333 9.43767 30.3823 9.18171 30.4729C8.64041 30.6631 8.18042 31.0361 7.87916 31.529C7.5779 32.0219 7.45376 32.6047 7.52762 33.1793C7.69802 34.3971 8.70381 35.3519 9.91715 35.3635C12.2529 35.3868 14.5886 35.37 16.9243 35.3635C16.9632 35.3572 17.0009 35.3445 17.0358 35.3259C16.9999 34.489 16.9294 33.6664 16.9384 32.845C16.9474 32.0237 17.0396 31.2127 17.096 30.3486L17.0947 30.3473Z" fill="#00AAA1"/>
</svg>
